<?xml version="1.0" encoding="UTF-8"?>
<svg id="_Слой_2" data-name="Слой 2" xmlns="http://www.w3.org/2000/svg" viewBox="0 0 109.29 45.83">
  <defs>
    <style>
      .cls-1 {
        stroke-width: 0px;
      }
    </style>
  </defs>
  <g id="_Слой_1-2" data-name="Слой 1">
    <g>
      <path class="cls-1" d="M22.57,35.5c-1.08.25-2.17.44-3.27.59s-2.14.22-3.12.22c-1.64,0-3.05-.17-4.24-.52-1.19-.34-2.17-.87-2.95-1.57-.78-.7-1.35-1.6-1.72-2.69s-.55-2.39-.55-3.9v-12.19H0v-4.67h6.71v-6.39l6.15-1.6v7.99h9.71v4.67h-9.71v11.75c0,1.43.33,2.5.98,3.23.66.73,1.75,1.09,3.29,1.09.98,0,1.94-.08,2.88-.25.93-.16,1.79-.35,2.56-.57v4.79Z"/>
      <path class="cls-1" d="M37.71,15.44h-7.06v-4.67h13.2v20.31h7.2v4.67h-21.27v-4.67h7.92v-15.64ZM44.35,3.93c0,.54-.1,1.05-.3,1.52-.2.48-.47.89-.82,1.24-.35.35-.77.63-1.24.84-.48.21-.99.31-1.55.31s-1.08-.1-1.56-.31c-.48-.2-.9-.48-1.25-.84s-.63-.77-.82-1.24c-.2-.48-.29-.98-.29-1.52s.1-1.05.29-1.52c.2-.48.47-.89.82-1.25.35-.36.77-.64,1.25-.85.48-.2,1-.31,1.56-.31s1.07.1,1.55.31c.48.21.89.49,1.24.85.35.36.63.78.82,1.25.2.48.3.98.3,1.52Z"/>
      <path class="cls-1" d="M74.96,35.75v-17.01c0-.62-.02-1.17-.05-1.63-.03-.47-.1-.86-.2-1.17-.1-.31-.24-.54-.43-.7-.19-.16-.45-.23-.77-.23-.51,0-1.01.34-1.5,1.03-.49.69-1.05,1.86-1.67,3.52v16.2h-5.14v-17.01c0-.62-.02-1.17-.05-1.63-.03-.47-.1-.86-.2-1.17-.1-.31-.25-.54-.44-.7-.2-.16-.46-.23-.79-.23-.43,0-.9.34-1.43,1.03-.52.69-1.11,1.86-1.75,3.52v16.2h-5.19V10.77h4.45l.1,3.64c.36-.74.72-1.37,1.08-1.89.36-.52.75-.95,1.16-1.29s.85-.58,1.32-.73,1-.22,1.59-.22c1.39,0,2.45.37,3.18,1.09.73.73,1.14,1.74,1.24,3.04.39-.74.78-1.37,1.17-1.89.38-.52.79-.95,1.2-1.29s.87-.58,1.35-.73,1.02-.22,1.61-.22c1.82,0,3.16.64,4.03,1.91.87,1.27,1.3,3.15,1.3,5.64v17.92h-5.19Z"/>
      <path class="cls-1" d="M81.6,45.83v-4.75h27.68v4.75h-27.68Z"/>
    </g>
  </g>
</svg>